n	Complete name                    :WWE.Raw.01.31.2011.WS.DSR.XviD-XS.avi
Format                           : AVI
Format/Info                      : Audio Video Interleave
File size                        : 869 MiB
Duration                         : 1h 34mn
Overall bit rate                 : 1 281 Kbps
Writing library                  : The File had been created by Solveig Multimedia AVI Writer

Video
ID                               : 0
Format                           : xvid
Codec ID                         : xvid
Duration                         : 1h 34mn
Bit rate                         : 1 139 Kbps
Width                            : 640 pixels
Height                           : 360 pixels
Display aspect ratio             : 16:9
Frame rate                       : 29.970 fps
Bits/(Pixel*Frame)               : 0.165
Stream size                      : 773 MiB (89%)

Audio
ID                               : 1
Format                           : MPEG Audio
Format version                   : Version 1
Format profile                   : Layer 3
Mode                             : Joint stereo
Mode extension                   : MS Stereo
Codec ID                         : 55
Codec ID/Hint                    : MP3
Duration                         : 1h 34mn
Bit rate mode                    : Constant
Bit rate                         : 128 Kbps
Channel(s)                       : 2 channels
Sampling rate                    : 48.0 KHz
Compression mode                 : Lossy
Video delay                      : 4ms
Stream size                      : 86.8 MiB (10%)
Alignment                        : Aligned on interleaves